<?xml version="1.0" standalone="no"?>
<!DOCTYPE svg PUBLIC "-//W3C//DTD SVG 20010904//EN"
 "http://www.w3.org/TR/2001/REC-SVG-20010904/DTD/svg10.dtd">
<svg version="1.0" xmlns="http://www.w3.org/2000/svg"
 width="225.000000pt" height="225.000000pt" viewBox="0 0 225.000000 225.000000"
 preserveAspectRatio="xMidYMid meet">
<metadata>
Created by potrace 1.11, written by Peter Selinger 2001-2013
</metadata>
<g transform="translate(0.000000,225.000000) scale(0.100000,-0.100000)"
fill="#000000" stroke="none">
<path d="M976 2240 c-469 -74 -826 -398 -942 -855 -25 -96 -28 -129 -28 -260
0 -131 3 -164 27 -259 48 -192 128 -345 255 -486 160 -180 338 -287 578 -347
98 -25 126 -28 269 -27 141 1 172 4 260 28 189 51 337 130 475 254 176 156
281 330 343 562 27 103 30 131 31 270 1 140 -2 166 -27 265 -130 502 -551 845
-1057 860 -69 2 -152 0 -184 -5z m350 -392 c-19 -70 -21 -65 34 -77 28 -6 55
-11 60 -11 5 0 17 25 26 55 l18 55 73 0 c40 0 73 -1 73 -2 0 -2 -9 -32 -20
-68 -25 -82 -25 -97 0 -105 19 -6 20 -15 20 -161 0 -149 -1 -154 -21 -154 -11
0 -40 16 -63 35 l-43 35 -28 -93 c-35 -119 -97 -320 -145 -472 -34 -107 -36
-120 -21 -123 44 -7 191 69 263 136 16 14 33 22 42 19 14 -5 16 -30 16 -155
l0 -149 -107 -41 c-104 -40 -199 -62 -274 -62 -33 0 -36 -3 -45 -38 l-9 -37
-72 -3 c-79 -3 -80 -2 -64 54 l9 32 -60 12 c-33 6 -61 10 -62 8 -1 -2 -9 -25
-17 -53 l-15 -50 -72 -3 c-84 -3 -83 -7 -47 98 l25 73 -60 54 c-123 111 -179
249 -187 458 -4 117 -2 140 21 229 65 250 236 400 500 437 l86 12 12 39 11 38
75 0 c72 0 74 -1 68 -22z"/>
<path d="M1203 1444 c-138 -439 -190 -620 -181 -631 11 -13 96 -48 102 -42 2
2 28 81 56 174 51 165 71 230 140 458 20 68 29 112 23 118 -5 5 -32 12 -60 15
l-50 6 -30 -98z"/>
<path d="M1024 1482 c-88 -64 -135 -175 -138 -322 -1 -97 9 -170 23 -170 4 0
18 35 31 78 12 42 47 157 77 255 30 98 53 181 50 183 -2 2 -21 -9 -43 -24z"/>
</g>
</svg>
